{"asset":{"version":"2.0","generator":"THREE.GLTFExporter"},"scenes":[{"name":"default","nodes":[0]}],"scene":0,"nodes":[{"name":"Blade","extras":{"data":{"name":"Blade","points":[{"name":"Origin","pos":{"x":0,"y":0,"z":0}}],"billboard":{"enabled":false,"y":false},"custom":[],"instances":[{"name":"Blade","uuid":"F8BDD5AA-18E7-4A4C-857E-CBE12751CE7F","parent":null,"pos":{"x":-3.365,"y":2.005,"z":2},"rot":{"x":0,"y":0,"z":0,"order":"XYZ"},"sca":{"x":1,"y":1,"z":1},"custom":[]}]}},"mesh":0}],"bufferViews":[{"buffer":0,"byteOffset":0,"byteLength":384,"target":34962,"byteStride":12},{"buffer":0,"byteOffset":384,"byteLength":384,"target":34962,"byteStride":12},{"buffer":0,"byteOffset":768,"byteLength":256,"target":34962,"byteStride":8},{"buffer":0,"byteOffset":1024,"byteLength":256,"target":34962,"byteStride":8},{"buffer":0,"byteOffset":1280,"byteLength":96,"target":34963}],"buffers":[{"byteLength":1376,"uri":"data:application/octet-stream;base64,"}],"accessors":[{"bufferView":0,"componentType":5126,"count":32,"max":[0.125,0.5,0.5],"min":[-0.125,-0.5,-0.5],"type":"VEC3"},{"bufferView":1,"componentType":5126,"count":32,"max":[1,0.24253562092781067,0.24253562092781067],"min":[-1,-0.24253562092781067,-0.24253562092781067],"type":"VEC3"},{"bufferView":2,"componentType":5126,"count":32,"max":[0.75,0.125],"min":[0.6875,0.0625],"type":"VEC2"},{"bufferView":3,"componentType":5126,"count":32,"max":[-1,0],"min":[-1,0],"type":"VEC2"},{"bufferView":4,"componentType":5123,"count":48,"max":[31],"min":[0],"type":"SCALAR"}],"materials":[{"pbrMetallicRoughness":{"metallicFactor":0,"roughnessFactor":0.9,"baseColorTexture":{"index":0}},"alphaMode":"MASK","alphaCutoff":0.01,"doubleSided":true,"extensions":{"KHR_materials_unlit":{}}}],"textures":[{"sampler":0,"source":0}],"samplers":[{"magFilter":9728,"minFilter":9728,"wrapS":33071,"wrapT":33071}],"images":[{"mimeType":"image/png","uri":"texture_1.png"}],"meshes":[{"primitives":[{"mode":4,"attributes":{"POSITION":0,"NORMAL":1,"TEXCOORD_0":2,"_UVANIMATION":3},"extras":{"indexNormals":[{"x":0.9701425001453319,"y":0,"z":-0.24253562503633297},{"x":1,"y":0,"z":0},{"x":0.9847319278346619,"y":-0.12309149097933274,"z":-0.12309149097933274},{"x":1,"y":0,"z":0},{"x":0.9701425001453319,"y":-0.24253562503633297,"z":0},{"x":0.9847319278346619,"y":-0.12309149097933274,"z":-0.12309149097933274},{"x":1,"y":0,"z":0},{"x":0.9847319278346619,"y":-0.12309149097933274,"z":0.12309149097933274},{"x":0.9701425001453319,"y":-0.24253562503633297,"z":0},{"x":1,"y":0,"z":0},{"x":0.9701425001453319,"y":0,"z":0.24253562503633297},{"x":0.9847319278346619,"y":-0.12309149097933274,"z":0.12309149097933274},{"x":0.9701425001453319,"y":0.24253562503633297,"z":0},{"x":0.9847319278346619,"y":0.12309149097933274,"z":0.12309149097933274},{"x":1,"y":0,"z":0},{"x":0.9847319278346619,"y":0.12309149097933274,"z":0.12309149097933274},{"x":0.9701425001453319,"y":0,"z":0.24253562503633297},{"x":1,"y":0,"z":0},{"x":0.9847319278346619,"y":0.12309149097933274,"z":-0.12309149097933274},{"x":1,"y":0,"z":0},{"x":0.9701425001453319,"y":0,"z":-0.24253562503633297},{"x":0.9847319278346619,"y":0.12309149097933274,"z":-0.12309149097933274},{"x":0.9701425001453319,"y":0.24253562503633297,"z":0},{"x":1,"y":0,"z":0},{"x":-0.9847319278346619,"y":-0.12309149097933274,"z":-0.12309149097933274},{"x":-1,"y":-2.7755575615628907e-17,"z":2.860979249076398e-17},{"x":-0.9701425001453319,"y":0,"z":-0.24253562503633297},{"x":-0.9847319278346619,"y":-0.12309149097933274,"z":-0.12309149097933274},{"x":-0.9701425001453319,"y":-0.24253562503633297,"z":1.0770745408287617e-16},{"x":-1,"y":-2.7755575615628907e-17,"z":2.860979249076398e-17},{"x":-1,"y":-2.7755575615628907e-17,"z":2.860979249076398e-17},{"x":-0.9847319278346619,"y":0.12309149097933274,"z":0.12309149097933274},{"x":-0.9701425001453319,"y":0.24253562503633297,"z":0},{"x":-1,"y":-2.7755575615628907e-17,"z":2.860979249076398e-17},{"x":-0.9701425001453319,"y":-1.0770745408287617e-16,"z":0.24253562503633297},{"x":-0.9847319278346619,"y":0.12309149097933274,"z":0.12309149097933274},{"x":-0.9701425001453319,"y":0,"z":-0.24253562503633297},{"x":-1,"y":-2.7755575615628907e-17,"z":2.860979249076398e-17},{"x":-0.9847319278346619,"y":0.12309149097933274,"z":-0.12309149097933274},{"x":-1,"y":-2.7755575615628907e-17,"z":2.860979249076398e-17},{"x":-0.9701425001453319,"y":0.24253562503633297,"z":0},{"x":-0.9847319278346619,"y":0.12309149097933274,"z":-0.12309149097933274},{"x":-0.9701425001453319,"y":-0.24253562503633297,"z":1.0770745408287617e-16},{"x":-0.9847319278346617,"y":-0.12309149097933283,"z":0.12309149097933283},{"x":-1,"y":-2.7755575615628907e-17,"z":2.860979249076398e-17},{"x":-0.9847319278346617,"y":-0.12309149097933283,"z":0.12309149097933283},{"x":-0.9701425001453319,"y":-1.0770745408287617e-16,"z":0.24253562503633297},{"x":-1,"y":-2.7755575615628907e-17,"z":2.860979249076398e-17}]},"indices":4,"material":0}]}],"extensionsUsed":["KHR_materials_unlit"]}