{"asset":{"version":"2.0","generator":"THREE.GLTFExporter"},"scenes":[{"name":"default","nodes":[0]}],"scene":0,"nodes":[{"name":"Lever","extras":{"data":{"name":"Lever","points":[{"name":"Origin","pos":{"x":0,"y":0,"z":0}}],"billboard":{"enabled":false,"y":false},"custom":[],"instances":[{"name":"Lever","uuid":"75983218-A1A6-446A-AE1C-218B2F56E329","parent":null,"pos":{"x":1,"y":0,"z":-0.975},"rot":{"x":0,"y":0,"z":0,"order":"XYZ"},"sca":{"x":1,"y":1,"z":1},"custom":[]}]}},"mesh":0}],"bufferViews":[{"buffer":0,"byteOffset":0,"byteLength":552,"target":34962,"byteStride":12},{"buffer":0,"byteOffset":552,"byteLength":552,"target":34962,"byteStride":12},{"buffer":0,"byteOffset":1104,"byteLength":368,"target":34962,"byteStride":8},{"buffer":0,"byteOffset":1472,"byteLength":368,"target":34962,"byteStride":8},{"buffer":0,"byteOffset":1840,"byteLength":120,"target":34963}],"buffers":[{"byteLength":1960,"uri":"data:application/octet-stream;base64,"}],"accessors":[{"bufferView":0,"componentType":5126,"count":46,"max":[1,8.025994300842285,0.9732142686843872],"min":[-1,0,-1.0267857313156128],"type":"VEC3"},{"bufferView":1,"componentType":5126,"count":46,"max":[0.9994664192199707,1,0.9440808296203613],"min":[-0.9998832941055298,-0.09687663614749908,0],"type":"VEC3"},{"bufferView":2,"componentType":5126,"count":46,"max":[0.3125,0.3125],"min":[0.25,0],"type":"VEC2"},{"bufferView":3,"componentType":5126,"count":46,"max":[-1,0],"min":[-1,0],"type":"VEC2"},{"bufferView":4,"componentType":5123,"count":60,"max":[45],"min":[0],"type":"SCALAR"}],"materials":[{"pbrMetallicRoughness":{"metallicFactor":0,"roughnessFactor":0.9,"baseColorTexture":{"index":0}},"alphaMode":"MASK","alphaCutoff":0.01,"doubleSided":true,"extensions":{"KHR_materials_unlit":{}}}],"textures":[{"sampler":0,"source":0}],"samplers":[{"magFilter":9728,"minFilter":9728,"wrapS":33071,"wrapT":33071}],"images":[{"mimeType":"image/png","uri":"texture_1.png"}],"meshes":[{"primitives":[{"mode":4,"attributes":{"POSITION":0,"NORMAL":1,"TEXCOORD_0":2,"_UVANIMATION":3},"extras":{"indexNormals":[{"x":-0.9952963968297677,"y":-0.09687663525165399,"z":0},{"x":-0.9952963968297677,"y":-0.09687663525165399,"z":0},{"x":-0.9952963968297677,"y":-0.09687663525165399,"z":0},{"x":-0.9952963968297677,"y":-0.09687663525165399,"z":0},{"x":-0.9952963968297676,"y":-0.09687663525165398,"z":0},{"x":-0.9952963968297677,"y":-0.09687663525165399,"z":0},{"x":0.9993948254663688,"y":-0.03478480747462322,"z":0},{"x":0.9993948254663688,"y":-0.03478480747462322,"z":0},{"x":0.9993948254663687,"y":-0.03478480747462321,"z":0},{"x":0.9993948254663688,"y":-0.03478480747462322,"z":0},{"x":0.9993948254663687,"y":-0.03478480747462322,"z":0},{"x":0.9993948254663688,"y":-0.03478480747462322,"z":0},{"x":-0.999883315341118,"y":-0.015275984500344444,"z":0},{"x":-0.999883315341118,"y":-0.015275984500344446,"z":0},{"x":-0.999883315341118,"y":-0.015275984500344446,"z":0},{"x":-0.999883315341118,"y":-0.015275984500344446,"z":0},{"x":-0.9998833153411179,"y":-0.015275984500344442,"z":0},{"x":-0.999883315341118,"y":-0.015275984500344446,"z":0},{"x":0.9994664016184086,"y":-0.03266361945575053,"z":0},{"x":0.9994664016184086,"y":-0.03266361945575053,"z":0},{"x":0.9994664016184086,"y":-0.03266361945575053,"z":0},{"x":0.9994664016184086,"y":-0.03266361945575053,"z":0},{"x":0.9994664016184086,"y":-0.03266361945575053,"z":0},{"x":0.9994664016184086,"y":-0.03266361945575053,"z":0},{"x":0,"y":1,"z":0},{"x":0,"y":1,"z":0},{"x":0,"y":1,"z":0},{"x":0,"y":1,"z":0},{"x":0,"y":1,"z":0},{"x":0,"y":1,"z":0},{"x":-0.4258740758612886,"y":0.038821797674821516,"z":0.9039491907925956},{"x":-0.4258740758612886,"y":0.038821797674821516,"z":0.9039491907925956},{"x":-0.5086868973934369,"y":0.04988200804084149,"z":0.8595053377926474},{"x":-0.4258740758612886,"y":0.038821797674821516,"z":0.9039491907925956},{"x":-0.3392473187145442,"y":0.027413916846646277,"z":0.9402976836662514},{"x":-0.4258740758612886,"y":0.038821797674821516,"z":0.9039491907925956},{"x":0.4123491896566018,"y":0.04319188360663003,"z":0.9100014324054964},{"x":0.4123491896566018,"y":0.04319188360663003,"z":0.9100014324054964},{"x":0.4958972594313667,"y":0.03120881906010602,"z":0.8678202104706559},{"x":0.4123491896566018,"y":0.04319188360663003,"z":0.9100014324054964},{"x":0.3251299217366122,"y":0.054790405229430905,"z":0.9440807939399781},{"x":0.4123491896566018,"y":0.04319188360663003,"z":0.9100014324054964},{"x":0,"y":1,"z":0},{"x":0,"y":1,"z":0},{"x":0,"y":1,"z":0},{"x":0,"y":1,"z":0},{"x":0,"y":1,"z":0},{"x":0,"y":1,"z":0},{"x":0.4258740458539469,"y":-0.03882180380511851,"z":0.9039492046665606},{"x":0.4258740458539469,"y":-0.03882180380511851,"z":0.9039492046665606},{"x":0.5086868404324596,"y":-0.04988200999075079,"z":0.8595053713910834},{"x":0.4258740458539469,"y":-0.03882180380511851,"z":0.9039492046665606},{"x":0.33924731861681273,"y":-0.027413927347394302,"z":0.9402976833953675},{"x":0.4258740458539469,"y":-0.03882180380511851,"z":0.9039492046665606},{"x":-0.41234912745609265,"y":-0.04319187869458485,"z":0.91000146082357},{"x":-0.41234912745609265,"y":-0.04319187869458485,"z":0.91000146082357},{"x":-0.4958972596314997,"y":-0.03120880614117235,"z":0.8678202108208887},{"x":-0.41234912745609265,"y":-0.04319187869458485,"z":0.91000146082357},{"x":-0.32512979233419503,"y":-0.054790407807087806,"z":0.9440808383549877},{"x":-0.41234912745609265,"y":-0.04319187869458485,"z":0.91000146082357}]},"indices":4,"material":0}]}],"extensionsUsed":["KHR_materials_unlit"]}