{"asset":{"version":"2.0","generator":"THREE.GLTFExporter"},"scenes":[{"name":"default","nodes":[0]}],"scene":0,"nodes":[{"name":"Pipe","extras":{"data":{"name":"Pipe","points":[{"name":"Origin","pos":{"x":0,"y":0,"z":0}}],"billboard":{"enabled":false,"y":false},"custom":[],"instances":[]}},"mesh":0}],"bufferViews":[{"buffer":0,"byteOffset":0,"byteLength":684,"target":34962,"byteStride":12},{"buffer":0,"byteOffset":684,"byteLength":684,"target":34962,"byteStride":12},{"buffer":0,"byteOffset":1368,"byteLength":456,"target":34962,"byteStride":8},{"buffer":0,"byteOffset":1824,"byteLength":456,"target":34962,"byteStride":8},{"buffer":0,"byteOffset":2280,"byteLength":240,"target":34963}],"buffers":[{"byteLength":2520,"uri":"data:application/octet-stream;base64,"}],"accessors":[{"bufferView":0,"componentType":5126,"count":57,"max":[10.806065559387207,-0.2435375601053238,0.2501470446586609],"min":[-4.056066036224365,-0.7564624547958374,-0.2501470446586609],"type":"VEC3"},{"bufferView":1,"componentType":5126,"count":57,"max":[5.692513127542043e-9,0.946267306804657,0.9509991407394409],"min":[-1,-0.9462672472000122,-0.9509991407394409],"type":"VEC3"},{"bufferView":2,"componentType":5126,"count":57,"max":[0.75,0.0625],"min":[0.6875,0],"type":"VEC2"},{"bufferView":3,"componentType":5126,"count":57,"max":[-1,0],"min":[-1,0],"type":"VEC2"},{"bufferView":4,"componentType":5123,"count":120,"max":[56],"min":[0],"type":"SCALAR"}],"materials":[{"pbrMetallicRoughness":{"metallicFactor":0,"roughnessFactor":0.9,"baseColorTexture":{"index":0}},"alphaMode":"MASK","alphaCutoff":0.01,"doubleSided":true,"extensions":{"KHR_materials_unlit":{}}}],"textures":[{"sampler":0,"source":0}],"samplers":[{"magFilter":9728,"minFilter":9728,"wrapS":33071,"wrapT":33071}],"images":[{"mimeType":"image/png","uri":"texture_1.png"}],"meshes":[{"primitives":[{"mode":4,"attributes":{"POSITION":0,"NORMAL":1,"TEXCOORD_0":2,"_UVANIMATION":3},"extras":{"indexNormals":[{"x":0,"y":-0.30919354052720344,"z":-0.9509991348556804},{"x":0,"y":-0.3091935405272034,"z":-0.9509991348556804},{"x":0,"y":-0.30919354052720344,"z":-0.9509991348556804},{"x":0,"y":-0.30919354052720344,"z":-0.9509991348556804},{"x":0,"y":-0.3091935405272034,"z":-0.9509991348556804},{"x":0,"y":-0.3091935405272034,"z":-0.9509991348556804},{"x":0,"y":-0.3091935405272034,"z":-0.9509991348556804},{"x":0,"y":-0.30919354052720344,"z":-0.9509991348556804},{"x":0,"y":-0.3091935405272034,"z":-0.9509991348556804},{"x":0,"y":-0.3091935405272034,"z":-0.9509991348556804},{"x":0,"y":-0.30919354052720344,"z":-0.9509991348556804},{"x":0,"y":-0.30919354052720344,"z":-0.9509991348556804},{"x":0,"y":0.309193497200493,"z":-0.9509991489422736},{"x":0,"y":0.30919349720049305,"z":-0.9509991489422737},{"x":0,"y":0.309193497200493,"z":-0.9509991489422736},{"x":0,"y":0.309193497200493,"z":-0.9509991489422736},{"x":0,"y":0.30919349720049305,"z":-0.9509991489422737},{"x":0,"y":0.30919349720049305,"z":-0.9509991489422737},{"x":0,"y":0.30919349720049305,"z":-0.9509991489422737},{"x":0,"y":0.309193497200493,"z":-0.9509991489422736},{"x":0,"y":0.30919349720049305,"z":-0.9509991489422737},{"x":0,"y":0.30919349720049305,"z":-0.9509991489422737},{"x":0,"y":0.309193497200493,"z":-0.9509991489422736},{"x":0,"y":0.309193497200493,"z":-0.9509991489422736},{"x":-0.9999999999996411,"y":0,"z":-8.472121240693338e-7},{"x":-1,"y":0,"z":0},{"x":-0.999999999999434,"y":-1.0329368112325833e-7,"z":-0.0000010590152055554833},{"x":-0.9999999999996411,"y":0,"z":-8.472121240693338e-7},{"x":-1,"y":0,"z":0},{"x":-1,"y":0,"z":0},{"x":-0.9999999999974791,"y":-3.0988104336961653e-7,"z":-0.0000022239319013839283},{"x":-0.999999999999434,"y":-1.0329368112325833e-7,"z":-0.0000010590152055554833},{"x":-0.9999999999975216,"y":1.032935871878833e-7,"z":-0.0000022239318610774195},{"x":-0.9999999999974791,"y":-3.0988104336961653e-7,"z":-0.0000022239319013839283},{"x":-0.9999999999996411,"y":0,"z":-8.472121240693338e-7},{"x":-0.999999999999434,"y":-1.0329368112325833e-7,"z":-0.0000010590152055554833},{"x":-0.999999999999434,"y":-1.0329368112325833e-7,"z":-0.0000010590152055554833},{"x":-1,"y":0,"z":0},{"x":-0.9999999999986903,"y":3.098809494344913e-7,"z":-0.0000015885227175576054},{"x":-0.999999999999434,"y":-1.0329368112325833e-7,"z":-0.0000010590152055554833},{"x":-1,"y":0,"z":0},{"x":-1,"y":0,"z":0},{"x":-0.9999999999975216,"y":1.032935871878833e-7,"z":-0.0000022239318610774195},{"x":-0.9999999999986903,"y":3.098809494344913e-7,"z":-0.0000015885227175576054},{"x":-0.9999999999954801,"y":9.29642848302728e-7,"z":-0.0000028593407221073847},{"x":-0.9999999999975216,"y":1.032935871878833e-7,"z":-0.0000022239318610774195},{"x":-0.999999999999434,"y":-1.0329368112325833e-7,"z":-0.0000010590152055554833},{"x":-0.9999999999986903,"y":3.098809494344913e-7,"z":-0.0000015885227175576054},{"x":1.26500297287931e-9,"y":0.9462672578195584,"z":0.3233856471438601},{"x":0,"y":0.9462672578195586,"z":0.32338564714386014},{"x":3.162507386079176e-9,"y":0.9462672501531748,"z":0.32338566957666665},{"x":1.26500297287931e-9,"y":0.9462672578195584,"z":0.3233856471438601},{"x":0,"y":0.9462672578195586,"z":0.32338564714386014},{"x":0,"y":0.9462672578195586,"z":0.32338564714386014},{"x":4.743761079118764e-9,"y":0.9462672463199827,"z":0.32338568079306984},{"x":3.162507386079176e-9,"y":0.9462672501531748,"z":0.32338566957666665},{"x":5.692513239599594e-9,"y":0.9462672348204058,"z":0.3233857144422792},{"x":4.743761079118764e-9,"y":0.9462672463199827,"z":0.32338568079306984},{"x":1.26500297287931e-9,"y":0.9462672578195584,"z":0.3233856471438601},{"x":3.162507386079176e-9,"y":0.9462672501531748,"z":0.32338566957666665},{"x":1.897504551557145e-9,"y":0.9462673038178533,"z":-0.3233855125470072},{"x":0,"y":0.9462673038178533,"z":-0.32338551254700726},{"x":1.8975045515571546e-9,"y":0.9462672808187089,"z":-0.3233855798454329},{"x":1.897504551557145e-9,"y":0.9462673038178533,"z":-0.3233855125470072},{"x":0,"y":0.9462673038178533,"z":-0.32338551254700726},{"x":0,"y":0.9462673038178533,"z":-0.32338551254700726},{"x":2.846256827335734e-9,"y":0.9462672693191349,"z":-0.3233856134946451},{"x":1.8975045515571546e-9,"y":0.9462672808187089,"z":-0.3233855798454329},{"x":0,"y":0.9462672348204056,"z":-0.3233857144422792},{"x":2.846256827335734e-9,"y":0.9462672693191349,"z":-0.3233856134946451},{"x":1.897504551557145e-9,"y":0.9462673038178533,"z":-0.3233855125470072},{"x":1.8975045515571546e-9,"y":0.9462672808187089,"z":-0.3233855798454329},{"x":0,"y":-0.946267165822925,"z":-0.32338591633750696},{"x":0,"y":-0.9462671658229251,"z":-0.32338591633750696},{"x":-2.5300059457586277e-9,"y":-0.9462671964884761,"z":-0.3233858266063},{"x":0,"y":-0.946267165822925,"z":-0.32338591633750696},{"x":0,"y":-0.9462671658229251,"z":-0.32338591633750696},{"x":0,"y":-0.9462671658229251,"z":-0.32338591633750696},{"x":-3.795008918637946e-9,"y":-0.9462672118212484,"z":-0.32338578174069543},{"x":-2.5300059457586277e-9,"y":-0.9462671964884761,"z":-0.3233858266063},{"x":-7.590017837275814e-9,"y":-0.9462672578195526,"z":-0.32338564714387735},{"x":-3.795008918637946e-9,"y":-0.9462672118212484,"z":-0.32338578174069543},{"x":0,"y":-0.946267165822925,"z":-0.32338591633750696},{"x":-2.5300059457586277e-9,"y":-0.9462671964884761,"z":-0.3233858266063},{"x":-2.53000594575862e-9,"y":-0.9462672578195584,"z":0.3233856471438601},{"x":0,"y":-0.9462672578195586,"z":0.32338564714386014},{"x":-5.06001189151724e-9,"y":-0.9462672578195584,"z":0.3233856471438601},{"x":-2.53000594575862e-9,"y":-0.9462672578195584,"z":0.3233856471438601},{"x":0,"y":-0.9462672578195586,"z":0.32338564714386014},{"x":0,"y":-0.9462672578195586,"z":0.32338564714386014},{"x":-7.59001783727586e-9,"y":-0.9462672578195584,"z":0.3233856471438601},{"x":-5.06001189151724e-9,"y":-0.9462672578195584,"z":0.3233856471438601},{"x":-7.59001783727586e-9,"y":-0.9462672578195584,"z":0.3233856471438601},{"x":-7.59001783727586e-9,"y":-0.9462672578195584,"z":0.3233856471438601},{"x":-2.53000594575862e-9,"y":-0.9462672578195584,"z":0.3233856471438601},{"x":-5.06001189151724e-9,"y":-0.9462672578195584,"z":0.3233856471438601},{"x":-8.266811201867775e-10,"y":-0.3091934538737941,"z":0.9509991630288608},{"x":0,"y":-0.3091934538737942,"z":0.950999163028861},{"x":-8.266811201867785e-10,"y":-0.30919348275826425,"z":0.9509991536378016},{"x":-8.266811201867775e-10,"y":-0.3091934538737941,"z":0.9509991630288608},{"x":0,"y":-0.3091934538737942,"z":0.950999163028861},{"x":0,"y":-0.3091934538737942,"z":0.950999163028861},{"x":-1.240021680280168e-9,"y":-0.3091934972004991,"z":0.9509991489422718},{"x":-8.266811201867785e-10,"y":-0.30919348275826425,"z":0.9509991536378016},{"x":0,"y":-0.3091935405272034,"z":0.9509991348556804},{"x":-1.240021680280168e-9,"y":-0.3091934972004991,"z":0.9509991489422718},{"x":-8.266811201867775e-10,"y":-0.3091934538737941,"z":0.9509991630288608},{"x":-8.266811201867785e-10,"y":-0.30919348275826425,"z":0.9509991536378016},{"x":0,"y":0.3091935405272034,"z":0.9509991348556804},{"x":0,"y":0.3091935405272034,"z":0.9509991348556804},{"x":4.1334061801402653e-10,"y":0.30919352608496664,"z":0.9509991395512116},{"x":0,"y":0.3091935405272034,"z":0.9509991348556804},{"x":0,"y":0.3091935405272034,"z":0.9509991348556804},{"x":0,"y":0.3091935405272034,"z":0.9509991348556804},{"x":6.200109270210397e-10,"y":0.30919351886384827,"z":0.9509991418989773},{"x":4.1334061801402653e-10,"y":0.30919352608496664,"z":0.9509991395512116},{"x":1.2400218540420793e-9,"y":0.30919349720049305,"z":0.9509991489422737},{"x":6.200109270210397e-10,"y":0.30919351886384827,"z":0.9509991418989773},{"x":0,"y":0.3091935405272034,"z":0.9509991348556804},{"x":4.1334061801402653e-10,"y":0.30919352608496664,"z":0.9509991395512116}]},"indices":4,"material":0}]}],"extensionsUsed":["KHR_materials_unlit"]}