{"asset":{"version":"2.0","generator":"THREE.GLTFExporter"},"scenes":[{"name":"default","nodes":[0]}],"scene":0,"nodes":[{"name":"Wheel","extras":{"data":{"name":"Wheel","points":[{"name":"Origin","pos":{"x":0,"y":0,"z":0}}],"billboard":{"enabled":false,"y":false},"custom":[],"instances":[{"name":"Wheel","uuid":"BD8BA901-0D05-42AF-97B7-372F363DD75D","parent":null,"pos":{"x":-21.5,"y":-0.25,"z":-0.25},"rot":{"x":0,"y":0,"z":0,"order":"XYZ"},"sca":{"x":1,"y":1,"z":1},"custom":[]}]}},"mesh":0}],"bufferViews":[{"buffer":0,"byteOffset":0,"byteLength":480,"target":34962,"byteStride":12},{"buffer":0,"byteOffset":480,"byteLength":480,"target":34962,"byteStride":12},{"buffer":0,"byteOffset":960,"byteLength":320,"target":34962,"byteStride":8},{"buffer":0,"byteOffset":1280,"byteLength":320,"target":34962,"byteStride":8},{"buffer":0,"byteOffset":1600,"byteLength":96,"target":34963}],"buffers":[{"byteLength":1696,"uri":"data:application/octet-stream;base64,"}],"accessors":[{"bufferView":0,"componentType":5126,"count":40,"max":[3,0.5009913444519043,3],"min":[-3,0,-3],"type":"VEC3"},{"bufferView":1,"componentType":5126,"count":40,"max":[0.041650332510471344,1,0.08285697549581528],"min":[-0.08308583498001099,-1,-0.041749898344278336],"type":"VEC3"},{"bufferView":2,"componentType":5126,"count":40,"max":[0.1875,0.1875],"min":[0,0],"type":"VEC2"},{"bufferView":3,"componentType":5126,"count":40,"max":[-1,0],"min":[-1,0],"type":"VEC2"},{"bufferView":4,"componentType":5123,"count":48,"max":[39],"min":[0],"type":"SCALAR"}],"materials":[{"pbrMetallicRoughness":{"metallicFactor":0,"roughnessFactor":0.9,"baseColorTexture":{"index":0}},"alphaMode":"MASK","alphaCutoff":0.01,"doubleSided":true,"extensions":{"KHR_materials_unlit":{}}}],"textures":[{"sampler":0,"source":0}],"samplers":[{"magFilter":9728,"minFilter":9728,"wrapS":33071,"wrapT":33071}],"images":[{"mimeType":"image/png","uri":"texture_1.png"}],"meshes":[{"primitives":[{"mode":4,"attributes":{"POSITION":0,"NORMAL":1,"TEXCOORD_0":2,"_UVANIMATION":3},"extras":{"indexNormals":[{"x":0,"y":0.9991348948593657,"z":0.041586799280107244},{"x":0.04148723181023376,"y":0.9991390292059501,"z":0.00009956965171932939},{"x":0,"y":0.9999999950685816,"z":0.00009931181631593982},{"x":0,"y":0.9991348948593657,"z":0.041586799280107244},{"x":0,"y":0.9999999950003277,"z":0.00009999672521822947},{"x":0.04148723181023376,"y":0.9991390292059501,"z":0.00009956965171932939},{"x":-0.04148723181023377,"y":0.9991390292059502,"z":0.000099569651719328},{"x":0,"y":0.9991431635700814,"z":-0.041387663514259466},{"x":0,"y":0.9999999950003277,"z":0.00009999672521822947},{"x":-0.04148723181023377,"y":0.9991390292059502,"z":0.000099569651719328},{"x":0,"y":0.9999999950685816,"z":0.00009931181631593982},{"x":0,"y":0.9991431635700814,"z":-0.041387663514259466},{"x":0,"y":0.9999999950685816,"z":0.00009931181631593982},{"x":0.04148723181023376,"y":0.9991390292059501,"z":0.00009956965171932939},{"x":0,"y":0.9991431635700814,"z":-0.041387663514259466},{"x":0.04148723181023376,"y":0.9991390292059501,"z":0.00009956965171932939},{"x":0,"y":0.9999999950003277,"z":0.00009999672521822947},{"x":0,"y":0.9991431635700814,"z":-0.041387663514259466},{"x":0,"y":0.9999999950003277,"z":0.00009999672521822947},{"x":0,"y":0.9991348948593657,"z":0.041586799280107244},{"x":-0.04148723181023377,"y":0.9991390292059502,"z":0.000099569651719328},{"x":0,"y":0.9991348948593657,"z":0.041586799280107244},{"x":0,"y":0.9999999950685816,"z":0.00009931181631593982},{"x":-0.04148723181023377,"y":0.9991390292059502,"z":0.000099569651719328},{"x":-2.2469594632222608e-7,"y":-0.9999999913280618,"z":-0.00013169596042414942},{"x":0.04165033396749784,"y":-0.9991322433826992,"z":-0.00009956631253619242},{"x":0.02773771067767853,"y":-0.9992330918934214,"z":0.027637790640259938},{"x":0.04165033396749784,"y":-0.9991322433826992,"z":-0.00009956631253619242},{"x":0,"y":-0.9999999950003277,"z":-0.00009999672521822947},{"x":0.02773771067767853,"y":-0.9992330918934214,"z":0.027637790640259938},{"x":0,"y":-0.9999999950003277,"z":-0.00009999672521822947},{"x":0,"y":-0.9991280928946277,"z":-0.04174989806866788},{"x":-0.04165044586650759,"y":-0.9991322349838696,"z":-0.0001318152441169431},{"x":0,"y":-0.9991280928946277,"z":-0.04174989806866788},{"x":-2.2469594632222608e-7,"y":-0.9999999913280618,"z":-0.00013169596042414942},{"x":-0.04165044586650759,"y":-0.9991322349838696,"z":-0.0001318152441169431},{"x":0,"y":-0.9991280928946277,"z":-0.04174989806866788},{"x":0.04165033396749784,"y":-0.9991322433826992,"z":-0.00009956631253619242},{"x":-2.2469594632222608e-7,"y":-0.9999999913280618,"z":-0.00013169596042414942},{"x":0,"y":-0.9991280928946277,"z":-0.04174989806866788},{"x":0,"y":-0.9999999950003277,"z":-0.00009999672521822947},{"x":0.04165033396749784,"y":-0.9991322433826992,"z":-0.00009956631253619242},{"x":-0.04165044586650759,"y":-0.9991322349838696,"z":-0.0001318152441169431},{"x":0.02773771067767853,"y":-0.9992330918934214,"z":0.027637790640259938},{"x":0,"y":-0.9999999950003277,"z":-0.00009999672521822947},{"x":-0.04165044586650759,"y":-0.9991322349838696,"z":-0.0001318152441169431},{"x":-2.2469594632222608e-7,"y":-0.9999999913280618,"z":-0.00013169596042414942},{"x":-0.0830858312645398,"y":-0.9930918723172891,"z":0.0828569718274912}]},"indices":4,"material":0}]}],"extensionsUsed":["KHR_materials_unlit"]}