{"asset":{"version":"2.0","generator":"THREE.GLTFExporter"},"scenes":[{"name":"default","nodes":[0]}],"scene":0,"nodes":[{"name":"Wheel","extras":{"data":{"name":"Wheel","points":[{"name":"Origin","pos":{"x":0,"y":0,"z":0}}],"billboard":{"enabled":false,"y":false},"custom":[],"instances":[{"name":"Wheel","uuid":"F8D26230-1ECE-4ECB-8BB8-E6B5D209A656","parent":null,"pos":{"x":-6,"y":-0.25,"z":-0.25},"rot":{"x":0,"y":0,"z":0,"order":"XYZ"},"sca":{"x":1,"y":1,"z":1},"custom":[]}]}},"mesh":0}],"bufferViews":[{"buffer":0,"byteOffset":0,"byteLength":504,"target":34962,"byteStride":12},{"buffer":0,"byteOffset":504,"byteLength":504,"target":34962,"byteStride":12},{"buffer":0,"byteOffset":1008,"byteLength":336,"target":34962,"byteStride":8},{"buffer":0,"byteOffset":1344,"byteLength":336,"target":34962,"byteStride":8},{"buffer":0,"byteOffset":1680,"byteLength":96,"target":34963}],"buffers":[{"byteLength":1776,"uri":"data:application/octet-stream;base64,"}],"accessors":[{"bufferView":0,"componentType":5126,"count":42,"max":[3,0.5009913444519043,3],"min":[-3,0,-3],"type":"VEC3"},{"bufferView":1,"componentType":5126,"count":42,"max":[0.04161768779158592,1,0.04158681258559227],"min":[-0.041650328785181046,-1,-0.04174989461898804],"type":"VEC3"},{"bufferView":2,"componentType":5126,"count":42,"max":[0.1875,0.1875],"min":[0,0],"type":"VEC2"},{"bufferView":3,"componentType":5126,"count":42,"max":[-1,0],"min":[-1,0],"type":"VEC2"},{"bufferView":4,"componentType":5123,"count":48,"max":[41],"min":[0],"type":"SCALAR"}],"materials":[{"pbrMetallicRoughness":{"metallicFactor":0,"roughnessFactor":0.9,"baseColorTexture":{"index":0}},"alphaMode":"MASK","alphaCutoff":0.01,"doubleSided":true,"extensions":{"KHR_materials_unlit":{}}}],"textures":[{"sampler":0,"source":0}],"samplers":[{"magFilter":9728,"minFilter":9728,"wrapS":33071,"wrapT":33071}],"images":[{"mimeType":"image/png","uri":"texture_1.png"}],"meshes":[{"primitives":[{"mode":4,"attributes":{"POSITION":0,"NORMAL":1,"TEXCOORD_0":2,"_UVANIMATION":3},"extras":{"indexNormals":[{"x":-0.04148723670494938,"y":-0.9991390290022142,"z":0.00009957459741885553},{"x":0,"y":-0.999134894243577,"z":0.04158681407460708},{"x":0,"y":-0.9999999949993341,"z":0.000100006659325543},{"x":-0.04148723670494938,"y":-0.9991390290022142,"z":0.00009957459741885553},{"x":0,"y":-0.9999999950680917,"z":0.00009931674910652927},{"x":0,"y":-0.999134894243577,"z":0.04158681407460708},{"x":0,"y":-0.9991431633669705,"z":-0.04138766841757932},{"x":0.04148723670494937,"y":-0.9991390290022142,"z":0.00009957459741885667},{"x":0,"y":-0.9999999950680917,"z":0.00009931674910652927},{"x":0,"y":-0.9991431633669705,"z":-0.04138766841757932},{"x":0,"y":-0.9999999950003277,"z":0.00009999672521822947},{"x":0.04148723670494937,"y":-0.9991390290022142,"z":0.00009957459741885667},{"x":0,"y":-0.9999999950003277,"z":0.00009999672521822947},{"x":0,"y":-0.9991431633669705,"z":-0.04138766841757932},{"x":-0.04148723670494938,"y":-0.9991390290022142,"z":0.00009957459741885553},{"x":0,"y":-0.9991431633669705,"z":-0.04138766841757932},{"x":0,"y":-0.9999999950680917,"z":0.00009931674910652927},{"x":-0.04148723670494938,"y":-0.9991390290022142,"z":0.00009957459741885553},{"x":0,"y":-0.9999999950680917,"z":0.00009931674910652927},{"x":0.04148723670494937,"y":-0.9991390290022142,"z":0.00009957459741885667},{"x":0,"y":-0.999134894243577,"z":0.04158681407460708},{"x":0.04148723670494937,"y":-0.9991390290022142,"z":0.00009957459741885667},{"x":0,"y":-0.9999999949993341,"z":0.000100006659325543},{"x":0,"y":-0.999134894243577,"z":0.04158681407460708},{"x":0,"y":0.9999999949993341,"z":-0.000100006659325543},{"x":-0.00003269867055016392,"y":0.9991377509043905,"z":0.0415181122946735},{"x":-0.041650329073308935,"y":0.999132243586228,"z":-0.00009957125835130839},{"x":-0.00003269867055016392,"y":0.9991377509043905,"z":0.0415181122946735},{"x":0,"y":0.9999999950686247,"z":-0.00009931138152701316},{"x":-0.041650329073308935,"y":0.999132243586228,"z":-0.00009957125835130839},{"x":0,"y":0.9999999950686247,"z":-0.00009931138152701316},{"x":0.04161768726168425,"y":0.9991335999813133,"z":-0.00013227006265644747},{"x":0,"y":0.99912809309949,"z":-0.041749893166051086},{"x":0.04161768726168425,"y":0.9991335999813133,"z":-0.00013227006265644747},{"x":0,"y":0.9999999950003277,"z":-0.00009999672521822947},{"x":0,"y":0.99912809309949,"z":-0.041749893166051086},{"x":-0.041650329073308935,"y":0.999132243586228,"z":-0.00009957125835130839},{"x":0,"y":0.99912809309949,"z":-0.041749893166051086},{"x":0,"y":0.9999999950003277,"z":-0.00009999672521822947},{"x":-0.041650329073308935,"y":0.999132243586228,"z":-0.00009957125835130839},{"x":0,"y":0.9999999950686247,"z":-0.00009931138152701316},{"x":0,"y":0.99912809309949,"z":-0.041749893166051086},{"x":-0.00003269867055016392,"y":0.9991377509043905,"z":0.0415181122946735},{"x":0.04161768726168425,"y":0.9991335999813133,"z":-0.00013227006265644747},{"x":0,"y":0.9999999950686247,"z":-0.00009931138152701316},{"x":-0.00003269867055016392,"y":0.9991377509043905,"z":0.0415181122946735},{"x":-0.00013045469462395464,"y":0.9999999649345687,"z":-0.0002304613509428209},{"x":0.04161768726168425,"y":0.9991335999813133,"z":-0.00013227006265644747}]},"indices":4,"material":0}]}],"extensionsUsed":["KHR_materials_unlit"]}